<svg xmlns="http://www.w3.org/2000/svg" width="184.523" height="54.662" viewBox="0 0 184.523 54.662">
  <g id="Group_2694" data-name="Group 2694" transform="translate(-641.253 -407.221)">
    <path id="Path_2756" data-name="Path 2756" d="M1230.5,422.869v-11.4a4.259,4.259,0,0,0-4.246-4.247h-15.408v6.833h2.769v6.833h-2.769v6.833h2.769v6.833h-2.769v6.833h2.769v6.833h-2.769v6.833h2.769v6.833h12.639a4.26,4.26,0,0,0,4.246-4.248v-11.4" transform="translate(-404.724 -0.001)" fill="#fff" fill-rule="evenodd"/>
    <path id="Path_2757" data-name="Path 2757" d="M802.844,420.887v-6.833h-2.769v-6.833H645.5a4.259,4.259,0,0,0-4.246,4.247v11.4a11.684,11.684,0,0,1,0,23.368v11.4a4.26,4.26,0,0,0,4.246,4.248H802.844V455.05h-2.769v-6.833h2.769v-6.833h-2.769v-6.833h2.769V427.72h-2.769v-6.833Z" fill="#fff" fill-rule="evenodd"/>
    <path id="Path_2758" data-name="Path 2758" d="M1128.41,454.863a3.583,3.583,0,1,1-3.583-3.583,3.432,3.432,0,0,1,3.583,3.583m-7.133,4.9h7.07v17.189h-7.07Z" transform="translate(-341.058 -31.306)" fill="#00783e"/>
    <path id="Path_2759" data-name="Path 2759" d="M719.82,487.41a10.681,10.681,0,0,1-4.9,1.069c-3.929.032-6.474-2.263-6.474-5.847v-6.254h-2.357v-4.463h2.357v-4.809h7.04v4.809h4.023v4.463h-4.023v5.185a1.291,1.291,0,0,0,1.383,1.446,5.951,5.951,0,0,0,1.76-.44Z" transform="translate(-46.067 -42.552)" fill="#00783e"/>
    <path id="Path_2760" data-name="Path 2760" d="M774.324,485.756v11.126h-6.946v-1.854a5.658,5.658,0,0,1-4.84,2.169c-3.646,0-5.752-2.137-5.752-5.406,0-3.394,2.294-5.186,6.663-5.249h3.928c-.032-1.195-.943-1.886-2.671-1.886a16.484,16.484,0,0,0-5.218,1.1l-1.572-4.715a25.67,25.67,0,0,1,8.487-1.665c4.965,0,7.92,2.326,7.92,6.38m-6.946,5.625V489.81h-2.451c-.975,0-1.509.471-1.509,1.384a1.407,1.407,0,0,0,1.572,1.509,2.9,2.9,0,0,0,2.388-1.32" transform="translate(-82.093 -51.27)" fill="#00783e"/>
    <path id="Path_2761" data-name="Path 2761" d="M833.347,492.374h7.481v5.28H824.421v-4.118l7.166-7.794h-6.852v-5.28h15.778v4.117Z" transform="translate(-130.15 -52.042)" fill="#00783e"/>
    <path id="Path_2762" data-name="Path 2762" d="M907.26,465.508h-7.845l-3.922,4.385-.043.044v-3.013a.577.577,0,1,1,0-.911V459.98a.6.6,0,0,0-.6-.6h-1.493a1.883,1.883,0,0,1-3.765,0h-1.23a.6.6,0,0,0-.6.6v5.92a.545.545,0,0,1,.088-.009.578.578,0,1,1-.088,1.146v14.991a.6.6,0,0,0,.6.6h1.236a1.88,1.88,0,0,1,3.754,0h1.5a.6.6,0,0,0,.6-.6v-6.61l0,0,.042-.034.834,1.707,2.595,5.312h8.246l-6.053-10.377Zm-17.981,1.538a.577.577,0,1,1,.578-.577.578.578,0,0,1-.578.577m1.451,0a.577.577,0,1,1,.577-.577.578.578,0,0,1-.577.577m1.451,0a.577.577,0,1,1,.577-.577.578.578,0,0,1-.577.577m1.451,0a.577.577,0,1,1,.577-.577.578.578,0,0,1-.577.577" transform="translate(-175.153 -37.059)" fill="#00783e"/>
    <path id="Path_2763" data-name="Path 2763" d="M972.239,485.756v11.126h-6.946v-1.854a5.658,5.658,0,0,1-4.84,2.169c-3.646,0-5.752-2.137-5.752-5.406,0-3.394,2.294-5.186,6.663-5.249h3.928c-.031-1.195-.943-1.886-2.671-1.886a16.484,16.484,0,0,0-5.218,1.1l-1.572-4.715a25.669,25.669,0,0,1,8.487-1.665c4.965,0,7.92,2.326,7.92,6.38m-6.946,5.625V489.81h-2.451c-.975,0-1.509.471-1.509,1.384a1.407,1.407,0,0,0,1.572,1.509,2.9,2.9,0,0,0,2.388-1.32" transform="translate(-222.721 -51.27)" fill="#00783e"/>
    <path id="Path_2764" data-name="Path 2764" d="M1032.666,482.206a6.114,6.114,0,0,1,5.249-2.828v6.38c-3.174-.471-5.249.66-5.249,2.923v8.2h-7.072V479.691h7.072Z" transform="translate(-273.093 -51.27)" fill="#00783e"/>
    <path id="Path_2765" data-name="Path 2765" d="M1083.839,487.41a10.682,10.682,0,0,1-4.9,1.069c-3.929.032-6.474-2.263-6.474-5.847v-6.254H1070.1v-4.463h2.357v-4.809h7.04v4.809h4.023v4.463H1079.5v5.185a1.291,1.291,0,0,0,1.383,1.446,5.952,5.952,0,0,0,1.76-.44Z" transform="translate(-304.721 -42.552)" fill="#00783e"/>
  </g>
</svg>
