<svg id="Group_2373" data-name="Group 2373" xmlns="http://www.w3.org/2000/svg" width="154.465" height="45.758" viewBox="0 0 154.465 45.758">
  <path id="Path_2549" data-name="Path 2549" d="M1227.3,420.32v-9.543a3.565,3.565,0,0,0-3.554-3.555h-12.9v5.72h2.318v5.72h-2.318v5.72h2.318v5.72h-2.318v5.72h2.318v5.72h-2.318v5.72h2.318v5.72h10.58a3.566,3.566,0,0,0,3.554-3.556v-9.542" transform="translate(-1072.833 -407.222)" fill="#00783e" fill-rule="evenodd"/>
  <path id="Path_2550" data-name="Path 2550" d="M776.522,418.661v-5.72H774.2v-5.72h-129.4a3.566,3.566,0,0,0-3.555,3.556v9.543a9.781,9.781,0,0,1,0,19.562v9.542a3.566,3.566,0,0,0,3.555,3.556H776.522v-5.72H774.2v-5.72h2.318v-5.72H774.2V430.1h2.318v-5.719H774.2v-5.72Z" transform="translate(-641.253 -407.221)" fill="#00783e" fill-rule="evenodd"/>
  <path id="Path_2551" data-name="Path 2551" d="M1127.243,454.279a3,3,0,1,1-3-3,2.873,2.873,0,0,1,3,3m-5.971,4.1h5.919v14.389h-5.919Z" transform="translate(-1004.943 -440.604)" fill="#fff"/>
  <path id="Path_2552" data-name="Path 2552" d="M717.583,484.1a8.942,8.942,0,0,1-4.1.895c-3.289.026-5.42-1.895-5.42-4.894v-5.235h-1.973v-3.736h1.973v-4.025h5.893v4.025h3.368v3.736h-3.368v4.341a1.081,1.081,0,0,0,1.158,1.21,4.982,4.982,0,0,0,1.474-.368Z" transform="translate(-690.377 -452.597)" fill="#fff"/>
  <path id="Path_2553" data-name="Path 2553" d="M771.468,484.717v9.314h-5.815v-1.552a4.736,4.736,0,0,1-4.051,1.815c-3.052,0-4.815-1.789-4.815-4.525,0-2.841,1.921-4.341,5.578-4.394h3.288c-.026-1-.789-1.579-2.236-1.579a13.8,13.8,0,0,0-4.368.921l-1.316-3.947a21.489,21.489,0,0,1,7.1-1.394c4.156,0,6.63,1.947,6.63,5.341m-5.815,4.709v-1.316H763.6c-.816,0-1.263.395-1.263,1.158a1.178,1.178,0,0,0,1.316,1.263,2.424,2.424,0,0,0,2-1.105" transform="translate(-728.793 -461.893)" fill="#fff"/>
  <path id="Path_2554" data-name="Path 2554" d="M831.893,490.434h6.262v4.42H824.421v-3.447l6-6.524h-5.736v-4.42h13.208v3.446Z" transform="translate(-780.039 -462.716)" fill="#fff"/>
  <path id="Path_2555" data-name="Path 2555" d="M904.083,464.509h-6.567l-3.283,3.671-.036.037v-2.523a.483.483,0,1,1,0-.763v-5.051a.506.506,0,0,0-.5-.5h-1.25a1.576,1.576,0,1,1-3.152,0h-1.03a.506.506,0,0,0-.5.5v4.956a.453.453,0,0,1,.073-.008.483.483,0,1,1-.073.959v12.549a.506.506,0,0,0,.5.5H889.3a1.574,1.574,0,0,1,3.142,0h1.254a.506.506,0,0,0,.5-.5V472.8l.035-.028.7,1.429,2.172,4.447h6.9l-5.067-8.686ZM889.031,465.8a.483.483,0,1,1,.483-.483.484.484,0,0,1-.483.483m1.215,0a.483.483,0,1,1,.483-.483.484.484,0,0,1-.483.483m1.214,0a.483.483,0,1,1,.484-.483.484.484,0,0,1-.484.483m1.215,0a.483.483,0,1,1,.483-.483.484.484,0,0,1-.483.483" transform="translate(-828.029 -446.74)" fill="#fff"/>
  <path id="Path_2556" data-name="Path 2556" d="M969.383,484.717v9.314h-5.814v-1.552a4.737,4.737,0,0,1-4.051,1.815c-3.052,0-4.815-1.789-4.815-4.525,0-2.841,1.92-4.341,5.578-4.394h3.289c-.026-1-.789-1.579-2.236-1.579a13.8,13.8,0,0,0-4.368.921l-1.316-3.947a21.488,21.488,0,0,1,7.1-1.394c4.156,0,6.63,1.947,6.63,5.341m-5.814,4.709v-1.316h-2.052c-.816,0-1.263.395-1.263,1.158a1.178,1.178,0,0,0,1.316,1.263,2.424,2.424,0,0,0,2-1.105" transform="translate(-878.753 -461.893)" fill="#fff"/>
  <path id="Path_2557" data-name="Path 2557" d="M1031.514,481.745a5.118,5.118,0,0,1,4.394-2.368v5.341c-2.657-.394-4.394.552-4.394,2.447v6.867h-5.92V479.64h5.92Z" transform="translate(-932.468 -461.894)" fill="#fff"/>
  <path id="Path_2558" data-name="Path 2558" d="M1081.6,484.1a8.941,8.941,0,0,1-4.1.895c-3.289.026-5.42-1.895-5.42-4.894v-5.235H1070.1v-3.736h1.973v-4.025h5.893v4.025h3.368v3.736h-3.368v4.341a1.081,1.081,0,0,0,1.158,1.21,4.98,4.98,0,0,0,1.474-.368Z" transform="translate(-966.194 -452.597)" fill="#fff"/>
</svg>
